# xmcd
#
# Track frame offsets: 
#        150
#        15335
#        30620
#
# Disc length: 735 seconds
#
# Revision: 0
# Processed by: cddbd v1.5.2PL0 Copyright (c) Steve Scherf et al.
# Submitted via: ExactAudioCopyFreeDBPlugin 1.0
#
DISCID=1402dd03
DTITLE=Blues Brothers - Everybody Needs Somebody To Love (Five Inch CD
DTITLE=Single)
DYEAR=1990
DGENRE=Blues
TTITLE0=Everybody Needs Somebody To Love
TTITLE1=Minnie The Moocher
TTITLE2=Shot Gun Blues
EXTD=
EXTT0=
EXTT1=
EXTT2=
PLAYORDER=
